{
	"asset":{
		"generator":"Khronos glTF Blender I/O v3.5.30",
		"version":"2.0"
	},
	"scene":0,
	"scenes":[
		{
			"name":"Scene",
			"nodes":[
				0
			]
		}
	],
	"nodes":[
		{
			"mesh":0,
			"name":"rock"
		}
	],
	"materials":[
		{
			"doubleSided":true,
			"name":"Material.001",
			"pbrMetallicRoughness":{}
		}
	],
	"meshes":[
		{
			"name":"rock",
			"primitives":[
				{
					"attributes":{
						"POSITION":0,
						"NORMAL":1
					},
					"indices":2,
					"material":0
				}
			]
		}
	],
	"accessors":[
		{
			"bufferView":0,
			"componentType":5126,
			"count":12290,
			"max":[
				0.373441219329834,
				0.5682503581047058,
				0.32142528891563416
			],
			"min":[
				-0.40702810883522034,
				-0.3809165954589844,
				-0.4045095145702362
			],
			"type":"VEC3"
		},
		{
			"bufferView":1,
			"componentType":5126,
			"count":12290,
			"type":"VEC3"
		},
		{
			"bufferView":2,
			"componentType":5123,
			"count":73728,
			"type":"SCALAR"
		}
	],
	"bufferViews":[
		{
			"buffer":0,
			"byteLength":147480,
			"byteOffset":0,
			"target":34962
		},
		{
			"buffer":0,
			"byteLength":147480,
			"byteOffset":147480,
			"target":34962
		},
		{
			"buffer":0,
			"byteLength":147456,
			"byteOffset":294960,
			"target":34963
		}
	],
	"buffers":[
		{
			"byteLength":442416,
			"uri":"data:application/octet-stream;base64,"
		}
	]
}
